<svg width="180" height="180" xmlns="http://www.w3.org/2000/svg" viewBox="0 0 180 180">
  <defs>
    <linearGradient id="appleIconGradient" x1="0%" y1="0%" x2="100%" y2="100%">
      <stop offset="0%" style="stop-color:#d97706;stop-opacity:1" />
      <stop offset="100%" style="stop-color:#f59e0b;stop-opacity:1" />
    </linearGradient>
    <filter id="appleIconShadow" x="-20%" y="-20%" width="140%" height="140%">
      <feDropShadow dx="0" dy="4" stdDeviation="4" flood-color="#00000020"/>
    </filter>
  </defs>
  
  <!-- Background with rounded corners for iOS -->
  <rect width="180" height="180" rx="40" ry="40" fill="url(#appleIconGradient)"/>
  
  <!-- Logo Icon -->
  <g filter="url(#appleIconShadow)" transform="translate(90,90)">
    <!-- Central hub -->
    <circle cx="0" cy="0" r="12" fill="white"/>
    
    <!-- Connection nodes -->
    <circle cx="-30" cy="-30" r="8" fill="white" opacity="0.9"/>
    <circle cx="30" cy="-30" r="8" fill="white" opacity="0.9"/>
    <circle cx="-30" cy="30" r="8" fill="white" opacity="0.9"/>
    <circle cx="30" cy="30" r="8" fill="white" opacity="0.9"/>
    
    <!-- Connection lines -->
    <line x1="0" y1="0" x2="-30" y2="-30" stroke="white" stroke-width="6" opacity="0.8"/>
    <line x1="0" y1="0" x2="30" y2="-30" stroke="white" stroke-width="6" opacity="0.8"/>
    <line x1="0" y1="0" x2="-30" y2="30" stroke="white" stroke-width="6" opacity="0.8"/>
    <line x1="0" y1="0" x2="30" y2="30" stroke="white" stroke-width="6" opacity="0.8"/>
    
    <!-- AI/automation symbols -->
    <path d="M-45,-8 L-38,0 L-45,8" stroke="white" stroke-width="4" fill="none" opacity="0.7"/>
    <path d="M45,-8 L38,0 L45,8" stroke="white" stroke-width="4" fill="none" opacity="0.7"/>
    <path d="M-8,-45 L0,-38 L8,-45" stroke="white" stroke-width="4" fill="none" opacity="0.7"/>
    <path d="M-8,45 L0,38 L8,45" stroke="white" stroke-width="4" fill="none" opacity="0.7"/>
  </g>
</svg>
